<svg width="29" height="20" viewBox="0 0 29 20" fill="none" xmlns="http://www.w3.org/2000/svg">
<path d="M4.49099 5.50602H4.16545V5.51004H2.37202V7.06716H4.1761V7.05911H4.49099C4.87669 7.05805 5.25879 7.13352 5.61514 7.28111C5.97149 7.4287 6.29503 7.64548 6.56704 7.91894C6.8405 8.19095 7.0573 8.51451 7.20489 8.87087C7.35248 9.22722 7.42793 9.60928 7.42687 9.99499C7.42792 10.3807 7.35246 10.7627 7.20487 11.1191C7.05728 11.4754 6.84049 11.7989 6.56704 12.0709C6.29503 12.3444 5.97149 12.5612 5.61514 12.7088C5.25879 12.8564 4.87669 12.9318 4.49099 12.9308C4.1053 12.9318 3.72325 12.8564 3.36692 12.7088C3.01058 12.5612 2.68704 12.3444 2.41505 12.0709C2.14156 11.799 1.92472 11.4755 1.77711 11.1191C1.6295 10.7628 1.55406 10.3807 1.5551 9.99499L1.55293 0H0L5.29848e-05 10.0022L0.0076298 10.3255H0.0141999C0.0918871 11.3993 0.554442 12.409 1.31688 13.1691C1.73274 13.5872 2.22743 13.9188 2.77227 14.1444C3.31711 14.3701 3.90126 14.4855 4.49099 14.4839C5.08072 14.4855 5.66492 14.3701 6.20976 14.1444C6.7546 13.9188 7.24925 13.5873 7.66509 13.1691C8.08325 12.7532 8.41478 12.2586 8.64046 11.7138C8.86614 11.1689 8.98149 10.5847 8.97986 9.99499C8.98151 9.40526 8.86617 8.82106 8.64049 8.27622C8.41481 7.73138 8.08329 7.23672 7.66512 6.82089C7.24927 6.40272 6.7546 6.07119 6.20976 5.84549C5.66492 5.61979 5.08073 5.50441 4.49099 5.50602Z" fill="#BDBDBD"/>
<path d="M14.5572 5.50624C13.9675 5.50464 13.3833 5.62002 12.8385 5.84572C12.2937 6.07141 11.7991 6.40295 11.3832 6.82111C10.9651 7.23695 10.6335 7.7316 10.4078 8.27644C10.1822 8.82128 10.0668 9.40548 10.0684 9.99522L10.0707 20.0004H11.6236L11.6234 9.91457C11.6424 9.16392 11.9496 8.44937 12.4813 7.91917C12.7533 7.64571 13.0768 7.42893 13.4331 7.28134C13.7895 7.13375 14.1716 7.05828 14.5572 7.05933C14.9429 7.05827 15.325 7.13375 15.6814 7.28134C16.0377 7.42893 16.3613 7.64571 16.6333 7.91917C16.9067 8.19118 17.1235 8.51474 17.2711 8.87109C17.4187 9.22744 17.4942 9.60951 17.4931 9.99522C17.4942 10.3809 17.4187 10.763 17.2711 11.1193C17.1235 11.4756 16.9067 11.7992 16.6333 12.0712C16.3613 12.3446 16.0377 12.5614 15.6814 12.709C15.325 12.8566 14.9429 12.9321 14.5572 12.931H12.4276V14.4881H14.2317V14.4841H14.5572C15.147 14.4857 15.7312 14.3703 16.276 14.1447C16.8209 13.919 17.3155 13.5875 17.7313 13.1693C18.1495 12.7535 18.481 12.2588 18.7067 11.714C18.9324 11.1692 19.0478 10.5849 19.0462 9.99522C19.0478 9.40548 18.9324 8.82128 18.7067 8.27644C18.481 7.7316 18.1495 7.23695 17.7313 6.82111C17.3155 6.40295 16.8209 6.07141 16.276 5.84572C15.7312 5.62002 15.147 5.50464 14.5572 5.50624Z" fill="#BDBDBD"/>
<path d="M27.4991 6.82996C27.0833 6.41181 26.5886 6.08032 26.0438 5.85462C25.499 5.62892 24.9148 5.51351 24.325 5.51509C23.7353 5.51349 23.1511 5.62887 22.6063 5.85457C22.0614 6.08026 21.5668 6.4118 21.1509 6.82996C20.4063 7.57061 19.9473 8.55053 19.855 9.59672H21.4176C21.5045 8.96444 21.7966 8.37818 22.249 7.92802C22.521 7.65456 22.8445 7.43778 23.2009 7.29019C23.5572 7.1426 23.9393 7.06713 24.325 7.06818C24.7107 7.06714 25.0928 7.1426 25.4491 7.29019C25.8054 7.43778 26.129 7.65457 26.401 7.92802C26.6744 8.20003 26.8912 8.52359 27.0388 8.87994C27.1864 9.23629 27.2619 9.61836 27.2608 10.0041C27.2619 10.3898 27.1864 10.7718 27.0388 11.1281C26.8912 11.4845 26.6744 11.808 26.401 12.08C26.129 12.3535 25.8054 12.5702 25.4491 12.7178C25.0928 12.8654 24.7107 12.9409 24.325 12.9398C23.9393 12.9409 23.5572 12.8654 23.2009 12.7178C22.8445 12.5702 22.521 12.3535 22.249 12.08C21.7965 11.6299 21.5044 11.0436 21.4176 10.4113H19.855C19.9473 11.4575 20.4063 12.4375 21.1509 13.1781C21.5668 13.5962 22.0614 13.9278 22.6063 14.1535C23.1511 14.3792 23.7353 14.4946 24.325 14.4929C24.9148 14.4945 25.499 14.3792 26.0438 14.1535C26.5887 13.9278 27.0833 13.5962 27.4991 13.1781C27.9173 12.7622 28.2488 12.2676 28.4745 11.7228C28.7002 11.178 28.8155 10.5938 28.8139 10.0041C28.8155 9.41434 28.7002 8.83013 28.4745 8.28529C28.2488 7.74045 27.9173 7.2458 27.4991 6.82996Z" fill="#BDBDBD"/>
</svg>
