<svg width="82" height="57" viewBox="0 0 82 57" fill="none" xmlns="http://www.w3.org/2000/svg">
<path d="M12.6447 15.5026H11.7281V15.5139H6.6786V19.8981H11.7581V19.8754H12.6447C13.7307 19.8724 14.8065 20.0849 15.8098 20.5005C16.8132 20.916 17.7241 21.5264 18.49 22.2963C19.2599 23.0622 19.8703 23.9732 20.2859 24.9766C20.7014 25.9799 20.9139 27.0556 20.9109 28.1416C20.9138 29.2275 20.7014 30.3032 20.2858 31.3065C19.8703 32.3098 19.2599 33.2208 18.49 33.9866C17.7241 34.7565 16.8132 35.3669 15.8098 35.7824C14.8065 36.198 13.7307 36.4105 12.6447 36.4075C11.5588 36.4104 10.4831 36.198 9.47979 35.7824C8.47651 35.3669 7.56555 34.7565 6.79973 33.9866C6.02972 33.2208 5.41918 32.31 5.00358 31.3067C4.58797 30.3034 4.37556 29.2276 4.3785 28.1416L4.37239 0H0L0.000149182 28.1619L0.0214823 29.0722H0.0399809C0.258715 32.0955 1.56107 34.9384 3.70778 37.0785C4.87865 38.2558 6.27149 39.1893 7.80552 39.8247C9.33955 40.4601 10.9843 40.7849 12.6447 40.7803C14.3051 40.785 15.95 40.4601 17.484 39.8247C19.0181 39.1893 20.4108 38.2559 21.5816 37.0785C22.759 35.9077 23.6924 34.515 24.3278 32.9809C24.9633 31.4469 25.288 29.802 25.2834 28.1416C25.2881 26.4812 24.9633 24.8363 24.3279 23.3023C23.6925 21.7682 22.7591 20.3755 21.5817 19.2047C20.4108 18.0273 19.0181 17.0939 17.484 16.4584C15.95 15.8229 14.3051 15.4981 12.6447 15.5026Z" fill="#2F80ED"/>
<path d="M40.9874 15.502C39.327 15.4975 37.6822 15.8223 36.1482 16.4578C34.6143 17.0933 33.2216 18.0268 32.0508 19.2041C30.8734 20.3749 29.94 21.7677 29.3045 23.3017C28.669 24.8357 28.3441 26.4806 28.3487 28.141L28.3551 56.3114H32.7275L32.727 27.914C32.7804 25.8005 33.6454 23.7886 35.1424 22.2958C35.9083 21.5258 36.8191 20.9155 37.8224 20.4999C38.8257 20.0844 39.9015 19.8719 40.9874 19.8748C42.0734 19.8719 43.1492 20.0844 44.1525 20.4999C45.1559 20.9155 46.0668 21.5258 46.8327 22.2958C47.6026 23.0616 48.213 23.9726 48.6285 24.976C49.0441 25.9793 49.2566 27.055 49.2536 28.141C49.2565 29.227 49.0441 30.3026 48.6285 31.3059C48.213 32.3092 47.6026 33.2202 46.8327 33.986C46.0668 34.7559 45.1559 35.3663 44.1525 35.7818C43.1492 36.1974 42.0734 36.4099 40.9874 36.4069H34.9912V40.7911H40.0708V40.7798H40.9874C42.6478 40.7844 44.2927 40.4595 45.8267 39.8241C47.3608 39.1887 48.7535 38.2553 49.9243 37.0779C51.1017 35.9071 52.0351 34.5144 52.6705 32.9804C53.306 31.4463 53.6309 29.8015 53.6264 28.141C53.631 26.4806 53.3061 24.8357 52.6706 23.3017C52.0352 21.7677 51.1017 20.3749 49.9243 19.2041C48.7535 18.0267 47.3608 17.0933 45.8267 16.4578C44.2927 15.8223 42.6478 15.4975 40.9874 15.502Z" fill="#2F80ED"/>
<path d="M77.425 19.2315C76.2542 18.0541 74.8614 17.1208 73.3274 16.4853C71.7933 15.8498 70.1485 15.5249 68.4881 15.5293C66.8277 15.5248 65.1828 15.8497 63.6488 16.4852C62.1148 17.1206 60.722 18.0541 59.5512 19.2315C57.4546 21.3168 56.1623 24.0758 55.9023 27.0215H60.3019C60.5466 25.2412 61.369 23.5906 62.6428 22.3231C63.4087 21.5532 64.3197 20.9428 65.323 20.5273C66.3263 20.1117 67.4021 19.8992 68.4881 19.9022C69.574 19.8992 70.6497 20.1117 71.653 20.5273C72.6563 20.9428 73.5672 21.5532 74.3331 22.3231C75.103 23.089 75.7134 24 76.1289 25.0033C76.5445 26.0067 76.757 27.0824 76.754 28.1684C76.757 29.2543 76.5445 30.33 76.1289 31.3333C75.7134 32.3366 75.103 33.2475 74.3331 34.0133C73.5672 34.7832 72.6563 35.3936 71.653 35.8092C70.6497 36.2247 69.574 36.4372 68.4881 36.4343C67.4021 36.4372 66.3263 36.2247 65.323 35.8092C64.3197 35.3936 63.4087 34.7833 62.6428 34.0133C61.3689 32.7459 60.5465 31.0952 60.3019 29.315H55.9023C56.1621 32.2606 57.4545 35.0197 59.5512 37.105C60.722 38.2824 62.1147 39.216 63.6488 39.8514C65.1828 40.4869 66.8277 40.8117 68.4881 40.8071C70.1486 40.8116 71.7934 40.4868 73.3274 39.8513C74.8615 39.2158 76.2542 38.2824 77.425 37.105C78.6024 35.9342 79.5358 34.5415 80.1712 33.0075C80.8066 31.4736 81.1314 29.8287 81.1268 28.1684C81.1314 26.5079 80.8067 24.8631 80.1713 23.329C79.5358 21.795 78.6024 20.4023 77.425 19.2315Z" fill="#2F80ED"/>
</svg>
