<svg width="29" height="20" viewBox="0 0 29 20" fill="none" xmlns="http://www.w3.org/2000/svg">
<path fill-rule="evenodd" clip-rule="evenodd" d="M4.27464 5.71447V7.28727C4.80791 7.28727 5.32919 7.4454 5.77258 7.74167C6.21598 8.03793 6.56156 8.45902 6.76563 8.95169C6.9697 9.44437 7.0231 9.98649 6.91906 10.5095C6.81503 11.0325 6.55824 11.5129 6.18116 11.89C5.80409 12.2671 5.32367 12.5239 4.80065 12.6279C4.27763 12.7319 3.73551 12.6786 3.24284 12.4745C2.75017 12.2704 2.32908 11.9248 2.03281 11.4814C1.73655 11.038 1.57842 10.5168 1.57842 9.9835L1.5728 2.13074H0L0.00561714 9.9835C0.00561714 10.8278 0.255991 11.6532 0.725078 12.3552C1.19416 13.0573 1.86089 13.6044 2.64096 13.9276C3.42102 14.2507 4.27938 14.3352 5.10749 14.1705C5.9356 14.0058 6.69626 13.5992 7.2933 13.0022C7.89033 12.4051 8.29692 11.6445 8.46164 10.8163C8.62636 9.98823 8.54182 9.12987 8.21871 8.34981C7.89559 7.56975 7.34842 6.90302 6.64639 6.43393C5.94435 5.96484 5.11898 5.71447 4.27464 5.71447ZM14.3967 5.50057C13.2645 5.50057 12.1787 5.95034 11.3781 6.75094C10.5775 7.55153 10.1277 8.63738 10.1277 9.76959L10.1221 17.6223H11.6949L11.7005 9.76959C11.7005 9.23633 11.8586 8.71504 12.1549 8.27165C12.4511 7.82826 12.8722 7.48268 13.3649 7.2786C13.8576 7.07453 14.3997 7.02114 14.9227 7.12517C15.4457 7.22921 15.9262 7.486 16.3032 7.86307C16.6803 8.24015 16.9371 8.72057 17.0411 9.24358C17.1452 9.7666 17.0918 10.3087 16.8877 10.8014C16.6836 11.2941 16.338 11.7152 15.8947 12.0114C15.4513 12.3077 14.93 12.4658 14.3967 12.4658V14.0386C15.5289 14.0386 16.6148 13.5888 17.4154 12.7882C18.216 11.9876 18.6657 10.9018 18.6657 9.76959C18.6657 8.63738 18.216 7.55153 17.4154 6.75094C16.6148 5.95034 15.5289 5.50057 14.3967 5.50057ZM22.1276 6.22003C22.8296 5.75094 23.655 5.50057 24.4993 5.50057C25.0599 5.50057 25.6151 5.61099 26.133 5.82553C26.6509 6.04007 27.1216 6.35452 27.518 6.75094C27.9144 7.14735 28.2288 7.61797 28.4434 8.13591C28.6579 8.65385 28.7683 9.20898 28.7683 9.76959C28.7683 10.6139 28.518 11.4393 28.0489 12.1413C27.5798 12.8434 26.9131 13.3905 26.133 13.7137C25.3529 14.0368 24.4946 14.1213 23.6665 13.9566C22.8384 13.7919 22.0777 13.3853 21.4807 12.7882C20.8836 12.1912 20.477 11.4305 20.3123 10.6024C20.1476 9.77433 20.2321 8.91597 20.5553 8.13591C20.8784 7.35584 21.4255 6.68911 22.1276 6.22003ZM23.0014 12.0114C23.4448 12.3077 23.9661 12.4658 24.4993 12.4658C25.2144 12.4658 25.9002 12.1818 26.4058 11.6761C26.9115 11.1705 27.1955 10.4847 27.1955 9.76959C27.1955 9.23633 27.0374 8.71504 26.7412 8.27165C26.4449 7.82826 26.0238 7.48268 25.5311 7.2786C25.0385 7.07453 24.4963 7.02114 23.9733 7.12517C23.4503 7.22921 22.9699 7.486 22.5928 7.86307C22.2157 8.24015 21.9589 8.72057 21.8549 9.24358C21.7509 9.7666 21.8043 10.3087 22.0083 10.8014C22.2124 11.2941 22.558 11.7152 23.0014 12.0114Z" fill="#2F80ED"/>
</svg>
