<svg width="29" height="16" viewBox="0 0 29 16" fill="none" xmlns="http://www.w3.org/2000/svg">
<path fill-rule="evenodd" clip-rule="evenodd" d="M4.27464 3.71447V5.28727C4.80791 5.28727 5.32919 5.4454 5.77258 5.74167C6.21598 6.03793 6.56156 6.45902 6.76563 6.95169C6.9697 7.44437 7.0231 7.98649 6.91906 8.5095C6.81503 9.03252 6.55824 9.51294 6.18116 9.89001C5.80409 10.2671 5.32367 10.5239 4.80065 10.6279C4.27763 10.7319 3.73551 10.6786 3.24284 10.4745C2.75017 10.2704 2.32908 9.92483 2.03281 9.48144C1.73655 9.03805 1.57842 8.51676 1.57842 7.9835L1.5728 0.130737H0L0.00561714 7.9835C0.00561714 8.82783 0.255991 9.6532 0.725078 10.3552C1.19416 11.0573 1.86089 11.6044 2.64096 11.9276C3.42102 12.2507 4.27938 12.3352 5.10749 12.1705C5.9356 12.0058 6.69626 11.5992 7.2933 11.0022C7.89033 10.4051 8.29692 9.64445 8.46164 8.81634C8.62636 7.98823 8.54182 7.12987 8.21871 6.34981C7.89559 5.56975 7.34842 4.90302 6.64639 4.43393C5.94435 3.96484 5.11898 3.71447 4.27464 3.71447ZM14.3967 3.50057C13.2645 3.50057 12.1787 3.95034 11.3781 4.75094C10.5775 5.55153 10.1277 6.63738 10.1277 7.76959L10.1221 15.6223H11.6949L11.7005 7.76959C11.7005 7.23633 11.8586 6.71504 12.1549 6.27165C12.4511 5.82826 12.8722 5.48268 13.3649 5.2786C13.8576 5.07453 14.3997 5.02114 14.9227 5.12517C15.4457 5.22921 15.9262 5.486 16.3032 5.86307C16.6803 6.24015 16.9371 6.72057 17.0411 7.24358C17.1452 7.7666 17.0918 8.30872 16.8877 8.80139C16.6836 9.29406 16.338 9.71516 15.8947 10.0114C15.4513 10.3077 14.93 10.4658 14.3967 10.4658V12.0386C15.5289 12.0386 16.6148 11.5888 17.4154 10.7882C18.216 9.98765 18.6657 8.90181 18.6657 7.76959C18.6657 6.63738 18.216 5.55153 17.4154 4.75094C16.6148 3.95034 15.5289 3.50057 14.3967 3.50057ZM22.1276 4.22003C22.8296 3.75094 23.655 3.50057 24.4993 3.50057C25.0599 3.50057 25.6151 3.61099 26.133 3.82553C26.6509 4.04007 27.1216 4.35452 27.518 4.75094C27.9144 5.14735 28.2288 5.61797 28.4434 6.13591C28.6579 6.65385 28.7683 7.20898 28.7683 7.76959C28.7683 8.61392 28.518 9.4393 28.0489 10.1413C27.5798 10.8434 26.9131 11.3905 26.133 11.7137C25.3529 12.0368 24.4946 12.1213 23.6665 11.9566C22.8384 11.7919 22.0777 11.3853 21.4807 10.7882C20.8836 10.1912 20.477 9.43055 20.3123 8.60244C20.1476 7.77433 20.2321 6.91597 20.5553 6.13591C20.8784 5.35584 21.4255 4.68911 22.1276 4.22003ZM23.0014 10.0114C23.4448 10.3077 23.9661 10.4658 24.4993 10.4658C25.2144 10.4658 25.9002 10.1818 26.4058 9.67611C26.9115 9.17047 27.1955 8.48467 27.1955 7.76959C27.1955 7.23633 27.0374 6.71504 26.7412 6.27165C26.4449 5.82826 26.0238 5.48268 25.5311 5.2786C25.0385 5.07453 24.4963 5.02114 23.9733 5.12517C23.4503 5.22921 22.9699 5.486 22.5928 5.86307C22.2157 6.24015 21.9589 6.72057 21.8549 7.24358C21.7509 7.7666 21.8043 8.30872 22.0083 8.80139C22.2124 9.29406 22.558 9.71516 23.0014 10.0114Z" fill="#343434"/>
</svg>
