<svg width="42" height="42" viewBox="0 0 42 42" fill="none" xmlns="http://www.w3.org/2000/svg">
<path d="M21 0.6875C9.7998 0.6875 0.6875 9.7998 0.6875 21C0.6875 32.2002 9.7998 41.3125 21 41.3125C32.2002 41.3125 41.3125 32.2002 41.3125 21C41.3125 9.7998 32.2002 0.6875 21 0.6875ZM31.5713 14.1924L18.4463 29.8174C18.3023 29.9889 18.1232 30.1274 17.921 30.2236C17.7188 30.3198 17.4983 30.3714 17.2744 30.375H17.248C17.029 30.3749 16.8125 30.3288 16.6125 30.2396C16.4124 30.1505 16.2334 30.0203 16.0869 29.8574L10.4619 23.6074C10.3191 23.4559 10.2079 23.2774 10.1351 23.0823C10.0622 22.8872 10.0291 22.6795 10.0376 22.4715C10.0461 22.2634 10.0962 22.0591 10.1848 21.8707C10.2734 21.6822 10.3988 21.5134 10.5536 21.3741C10.7084 21.2348 10.8895 21.1278 11.0862 21.0595C11.2829 20.9912 11.4913 20.9629 11.6991 20.9763C11.9069 20.9896 12.1099 21.0444 12.2963 21.1374C12.4826 21.2303 12.6485 21.3596 12.7842 21.5176L17.207 26.4316L29.1787 12.1826C29.4472 11.8721 29.8272 11.6798 30.2364 11.6472C30.6456 11.6146 31.0512 11.7443 31.3655 12.0084C31.6798 12.2724 31.8776 12.6495 31.9161 13.0582C31.9546 13.4669 31.8307 13.8743 31.5713 14.1924Z" fill="#2F80ED"/>
</svg>
