<svg width="253" height="253" viewBox="0 0 253 253" fill="none" xmlns="http://www.w3.org/2000/svg">
<path d="M106.648 133H114.907V131.594H108.821V131.491L111.762 128.347C114.012 125.937 114.676 124.812 114.676 123.361C114.676 121.341 113.04 119.73 110.739 119.73C108.444 119.73 106.699 121.29 106.699 123.591H108.208C108.208 122.102 109.173 121.111 110.688 121.111C112.107 121.111 113.194 121.98 113.194 123.361C113.194 124.569 112.484 125.464 110.969 127.119L106.648 131.849V133ZM121.816 133.179C124.706 133.179 126.368 130.731 126.368 126.455C126.368 122.21 124.68 119.73 121.816 119.73C118.953 119.73 117.265 122.21 117.265 126.455C117.265 130.731 118.927 133.179 121.816 133.179ZM121.816 131.773C119.912 131.773 118.799 129.862 118.799 126.455C118.799 123.054 119.924 121.111 121.816 121.111C123.708 121.111 124.833 123.054 124.833 126.455C124.833 129.862 123.721 131.773 121.816 131.773ZM128.797 133H137.055V131.594H130.97V131.491L133.91 128.347C136.16 125.937 136.825 124.812 136.825 123.361C136.825 121.341 135.189 119.73 132.887 119.73C130.593 119.73 128.848 121.29 128.848 123.591H130.356C130.356 122.102 131.321 121.111 132.836 121.111C134.255 121.111 135.342 121.98 135.342 123.361C135.342 124.569 134.632 125.464 133.118 127.119L128.797 131.849V133ZM144.297 119.909H142.712L139.439 122.082V123.693L142.635 121.571H142.712V133H144.297V119.909Z" fill="#333333"/>
<path fill-rule="evenodd" clip-rule="evenodd" d="M126.5 253C196.364 253 253 196.364 253 126.5C253 56.636 196.364 0 126.5 0C56.636 0 0 56.636 0 126.5C0 196.364 56.636 253 126.5 253ZM126.5 201C167.645 201 201 167.645 201 126.5C201 85.3548 167.645 52 126.5 52C85.3548 52 52 85.3548 52 126.5C52 167.645 85.3548 201 126.5 201Z" fill="#F2F2F2"/>
<path fill-rule="evenodd" clip-rule="evenodd" d="M126.5 52C167.645 52 201 85.3548 201 126.5C201 167.645 167.645 201 126.5 201C85.3548 201 52 167.645 52 126.5C52 116.544 53.953 107.044 57.4968 98.3623L9.45563 78.4243C3.36106 93.2461 0 109.481 0 126.5C0 196.364 56.636 253 126.5 253C196.364 253 253 196.364 253 126.5C253 56.636 196.364 0 126.5 0V52Z" fill="#2F80ED"/>
</svg>
