<svg width="288" height="267" viewBox="0 0 288 267" fill="none" xmlns="http://www.w3.org/2000/svg">
<path d="M92.2506 251.034C92.1921 253.703 92.1384 256.402 92.0896 259.086C96.7843 261.218 101.469 263.297 106.159 265.43C103.858 263.344 101.946 260.865 100.513 258.11C99.384 255.89 98.5772 253.52 98.1165 251.073L92.2604 251.019L92.2506 251.034ZM51.6971 246.49C49.9906 247.867 48.7597 249.745 48.1785 251.858C46.9585 256.446 49.4034 260.155 49.7792 260.765C46.4266 256.338 43.0056 251.858 39.6481 247.437L45.7775 240.664L51.6971 246.49ZM184.787 199.363C194.332 212.702 203.873 226.03 213.409 239.346C212.872 240.624 212.13 242.547 211.276 244.836C209.036 251.234 208.504 254.645 207.972 254.596C207.44 254.547 207.065 251.985 207.172 240.79C193.95 228.958 180.732 217.124 167.516 205.288C170.833 205.683 174.195 205.282 177.325 204.116C180.14 203.118 182.691 201.495 184.787 199.368V199.363ZM160.533 210.026L153.764 258.007C153.022 258.647 151.9 259.496 150.514 260.447C145.61 263.698 139.265 266.206 138.573 265.083C138.148 264.444 139.641 262.848 140.812 261.619C142.368 259.898 144.277 258.534 146.41 257.622C145.771 241.254 145.078 224.925 144.458 208.577C146.8 208.738 149.148 208.953 151.49 209.163C154.53 209.431 157.576 209.699 160.552 210.017L160.533 210.026Z" fill="white"/>
<path d="M205.401 111.298L161.432 101.864L169.108 149.309V201.711H178.38C179.808 194.278 181.932 186.996 184.724 179.961C186.32 176.017 189.141 169.62 189.995 161.568C190.102 160.504 190.322 158.317 190.42 155.653C190.688 150.748 190.527 146.698 190.42 143.819L195.485 156.717L187.438 196.06C187.809 196.114 188.131 196.221 188.502 196.275C187.97 198.085 187.389 199.949 186.857 201.765C191.22 203.951 195.592 206.157 199.916 208.319C200.379 208.091 200.753 207.717 200.98 207.255C201.4 206.084 199.96 204.751 198.628 203.043C197.382 201.411 196.328 199.641 195.485 197.768C194.26 197.5 192.986 197.231 191.752 196.968C191.059 196.807 190.419 196.699 189.726 196.538L196.559 197.978C201.463 185.929 204.855 177.613 206.9 172.601C209.94 165.247 211.326 161.943 211.965 156.77C212.658 151.28 212.126 147.122 210.472 137.738C209.252 130.491 207.593 121.585 205.406 111.298H205.401ZM238.03 9.2647L239.045 2.22761C242.885 1.67728 246.801 2.07948 250.45 3.39883C259.668 6.81489 263.455 15.0232 264.255 16.78C264.626 16.8874 271.395 18.7565 271.878 22.6362C272.303 26.1547 267.291 29.4049 263.719 31.7522C261.995 32.9208 260.133 33.87 258.175 34.5777C253.534 36.0684 248.547 36.0872 243.896 34.6314C243.399 33.8445 243.038 32.9802 242.827 32.0743C242.448 30.4394 242.579 28.7278 243.203 27.1698C241.441 21.1965 239.738 15.2233 238.03 9.25494V9.2647Z" fill="#0D0D0C"/>
<path d="M249.375 35.6488C247.493 35.5364 245.632 35.1972 243.831 34.6386C242.982 35.0095 242.074 35.3316 241.225 35.7025C239.502 36.709 237.968 38.0088 236.691 39.5431C233.012 44.1304 233.231 49.2447 232.904 57.7215C232.743 62.0403 232.416 68.2771 231.631 75.8998L215.375 46.102C213.243 40.4508 211.91 37.7326 211.378 37.8351C210.998 37.9424 210.998 39.3284 211.378 42.0466C204.654 36.8249 203.273 37.0396 202.897 37.4105C201.989 38.2645 203.917 42.3687 206.684 45.0332C208.575 46.8149 210.914 48.0495 213.452 48.6054C213.452 48.6054 222.354 74.6212 227.736 86.6702C233.119 98.7191 238.024 90.8817 238.024 90.8817C250.868 91.1452 263.766 91.4673 276.611 91.7308C275.869 83.6836 275.386 77.3931 275.122 73.5525C274 57.6678 273.946 49.9377 268.563 42.2613C267.669 40.9905 266.672 39.7957 265.582 38.6891L258.066 34.5312C255.271 35.4732 252.317 35.853 249.375 35.6488ZM247.886 152.239C250.767 152.4 253.597 153.061 256.251 154.191C255.88 156.695 255.455 159.257 255.08 161.76C257.037 166.839 258.605 172.06 259.769 177.376C261.606 185.99 262.323 194.805 261.902 203.602H256.397C254.051 196.095 251.281 188.728 248.101 181.534C245.759 176.254 243.465 171.672 242.025 164.688C241.269 160.771 240.895 156.79 240.908 152.8C243.198 152.286 245.548 152.089 247.891 152.215L247.886 152.239ZM265.899 155.436C269.421 155.043 272.878 154.202 276.186 152.932C275.757 156.021 275.386 159.115 274.961 162.204C276.558 166.82 277.754 171.565 278.533 176.386C279.988 185.426 279.988 194.64 278.533 203.68H272.614C271.335 195.95 269.896 189.767 268.832 185.502C267.124 178.787 265.845 175.107 264.62 168.392C263.84 164.194 263.272 159.959 262.917 155.704C263.874 155.597 264.83 155.543 265.899 155.436Z" fill="#D9D9D9"/>
<path d="M262.254 36.8805C263.203 40.9869 263.401 45.2308 262.84 49.4077C262.352 52.9799 261.83 56.4985 259.058 58.1919C257.457 59.1679 255.539 59.2069 254.9 59.2606C254.632 59.2606 251.86 59.3143 249.727 57.9772C247.595 56.64 246.799 54.3561 245.516 46.9969C244.93 43.7468 244.291 39.5353 243.759 34.6845L239.601 36.7634C240.052 56.9779 239.224 77.2007 237.122 97.3107C235.043 116.875 230.241 150.196 238.03 152.915C240.426 153.769 242.876 151.314 249.381 152.485C251.46 152.861 251.938 153.232 257.853 154.618C262.172 155.633 263.221 155.74 264.411 155.686C265.104 155.686 265.876 155.579 271.39 154.193C276.187 152.968 276.138 152.915 277.31 152.7C282.053 151.953 284.449 153.285 285.572 152.915C288.553 151.899 287.968 137.24 275.016 82.9193L265.671 38.7496L262.254 36.8854V36.8805ZM82.0424 149.738C85.4586 154.006 88.5097 158.554 91.1633 163.334C101.289 181.566 103.422 199.368 103.69 210.885C102.226 224.061 100.86 237.238 99.4253 250.414C98.6347 250.91 97.7673 251.271 96.8583 251.483C94.8226 251.891 92.7078 251.509 90.9436 250.414C87.9668 232.289 85.0339 214.218 82.0424 196.094L77.1916 216.19L53.528 246.842C51.4807 246.726 49.5384 245.897 48.0379 244.499C46.9452 243.458 46.1371 242.154 45.6906 240.712C47.4366 235.53 49.6499 230.517 52.3031 225.735C56.6171 218.005 58.696 216.99 59.6574 212.779C61.2581 205.58 57.2613 200.144 52.0347 190.496C47.4529 181.877 44.1174 172.651 42.1281 163.094C44.4657 157.39 46.7593 151.738 49.1017 146.038C54.5098 148.051 60.1531 149.363 65.8941 149.943C71.2654 150.532 76.6887 150.46 82.0424 149.728V149.738ZM126.305 197.353C127.213 198.368 128.067 199.271 128.921 200.071C133.874 204.819 138.461 206.903 141.711 207.908C145.654 209.133 146.401 208.44 160.524 210.041C170.65 211.163 170.772 211.588 173.003 211.11C180.035 209.616 180.996 205.19 188.619 203.697C192.938 202.896 193.738 204.073 198.745 203.697C203.542 203.38 209.032 201.833 215.001 197.992C209.754 185.731 203.626 173.865 196.666 162.489C195.392 160.41 194.06 158.278 192.669 156.145C190.966 153.534 189.204 150.923 187.34 148.308C182.221 141.061 177.053 134.502 171.987 128.587L144.913 127.733C139.105 149.378 133.314 171.021 127.539 192.663C127.164 194.195 126.734 195.791 126.305 197.353ZM178.166 24.3533C175.632 21.9652 173.744 18.9755 172.675 15.6619C171.982 13.5293 171.211 11.0258 172.036 8.25388C173.368 3.66659 178.38 1.00206 182.162 0.201728C186.164 -0.598607 186.642 1.17775 195.49 2.1196C202.322 2.81258 205.348 2.38801 206.05 4.03748C206.416 4.94518 206.202 6.59953 202.634 10.0107C200.721 10.9867 198.799 11.9286 196.881 12.9388L178.166 24.3533Z" fill="white"/>
<path d="M197.991 41.1449C195.418 38.0549 192.421 35.344 189.089 33.0927C185.039 33.0391 180.993 33.0391 176.889 33.0391C173.418 35.0227 170.448 37.7756 168.207 41.0863C165.863 44.5533 164.414 48.5471 163.991 52.7107C162.659 68.8638 161.326 84.9633 159.994 101.116L167.827 105.328L178.602 125L187.498 121.213L180.886 109.164L209.405 111.726C209.979 98.3268 209.49 84.9035 207.941 71.582C206.121 55.9657 203.676 48.021 198.02 41.1449" fill="#1A5FC7"/>
<path d="M238.83 6.59961C238.099 8.79791 237.598 11.0664 237.337 13.3683C237.014 16.4623 236.219 24.246 240.162 26.5446C241.219 27.1213 242.44 27.3258 243.627 27.1253L245.384 28.5893C244.967 27.6983 244.697 26.7458 244.584 25.7686C244.431 24.2584 244.709 22.7359 245.384 21.3765C244.167 20.3568 243.216 19.0574 242.612 17.5896C241.931 15.8437 241.747 13.9435 242.08 12.0995C241.565 11.8417 241.097 11.5003 240.694 11.0893C239.045 9.48863 238.884 7.35603 238.83 6.60937V6.59961ZM195.495 10.3963C196.858 12.3459 197.737 14.5928 198.057 16.9503C198.545 20.952 197.412 27.0277 193.416 28.5698C192.054 29.0557 190.566 29.0557 189.204 28.5698V32.996C187.626 34.1178 185.768 34.7815 183.836 34.9139C181.394 35.0636 178.972 34.3882 176.96 32.996C176.903 31.0459 177.082 29.096 177.492 27.1887C177.707 26.281 177.921 25.3197 178.239 24.3046C178.687 22.9229 179.26 21.5851 179.952 20.3078C179.593 19.5258 179.504 18.6474 179.696 17.809C179.888 16.9707 180.352 16.2193 181.015 15.6717C181.601 15.2037 182.309 14.9143 183.055 14.8382C183.801 14.762 184.554 14.9023 185.222 15.2423C185.91 13.6006 187.081 12.2067 188.58 11.2455C189.616 10.6402 190.765 10.2528 191.957 10.1068C193.148 9.96076 194.357 10.0593 195.509 10.3963H195.495ZM186.222 121.702C188.941 124.371 190.127 126.02 189.682 126.66C189.419 127.089 188.461 127.089 186.808 126.66C190.751 133.004 190.595 134.229 190.224 134.551C189.424 135.244 185.905 132.633 183.719 130.447C181.993 128.723 180.57 126.722 179.507 124.527C181.806 123.624 184.041 122.663 186.227 121.702H186.222Z" fill="#D9D9D9"/>
<path d="M31.5394 142.378C31.5394 141.846 32.2909 139.021 33.7793 133.37C34.2673 131.661 35.5898 126.537 39.2694 114.606C42.7343 103.411 43.2663 102.235 44.5985 100.795C48.7027 96.3735 54.6759 95.3585 58.4092 95.1437C60.4034 95.6504 62.4326 96.0077 64.48 96.2125C66.8194 96.4411 69.1746 96.4591 71.5171 96.2661C72.8494 84.5539 74.1816 72.8417 75.5139 61.1295C74.9462 51.9351 74.8403 42.718 75.1967 33.513C75.4065 28.2376 75.7335 23.1721 76.2069 18.2676C77.7853 17.9297 79.3907 17.7337 81.004 17.682C82.7139 17.6723 84.4191 17.864 86.0842 18.253C87.1529 30.7265 87.7922 44.3224 87.7922 58.8212C87.7619 74.4926 86.9083 90.1516 85.2351 105.734C84.7231 113.543 84.9191 121.384 85.8207 129.158C86.5673 135.448 87.3628 138.43 85.3912 140.724C83.6344 142.749 80.4379 143.286 65.3828 141.309C58.7703 140.46 53.2802 139.499 49.176 138.752V133.794L43.9544 142.271L61.1957 176.495L56.1302 179.745C53.9 177.188 50.8548 173.669 47.3899 169.458C32.8912 151.919 31.4028 146.853 31.5589 142.378H31.5394ZM164.595 73.6079C166.635 73.0889 168.49 72.0102 169.95 70.4935C171.41 68.9767 172.417 67.0823 172.857 65.0238C173.294 62.7485 173.022 60.394 172.079 58.2779C171.135 56.1618 169.566 54.3858 167.582 53.1896C171.525 53.5653 174.902 51.1106 175.419 48.1289C175.956 44.8202 172.979 42.1557 170.993 41.0869C170.564 40.8771 166.996 39.0129 163.531 40.9308C160.652 42.5314 159.105 45.9963 159.744 49.6173C158.355 48.6886 156.729 48.1755 155.058 48.1383C153.387 48.1011 151.741 48.5414 150.311 49.4075C149.369 50.0564 148.563 50.8848 147.941 51.8453C147.319 52.8057 146.892 53.8794 146.685 55.005C148.554 60.334 150.472 65.6143 152.336 70.9433L164.595 73.6079Z" fill="#0D0D0C"/>
<path d="M84.4639 18.0633C86.16 16.2078 87.6431 14.1682 88.8853 11.9827C90.6519 8.89357 93.048 3.61331 92.0329 2.86665C91.3936 2.44209 89.2074 3.61331 82.0629 11.3434C81.531 8.94725 81.0576 7.71747 80.5989 7.77115C79.9059 7.82483 79.4325 11.1872 79.1348 17.8485C80.8917 17.9022 82.7022 17.9559 84.4639 18.0633ZM59.6242 177.564C61.4593 178.744 62.9786 180.354 64.0505 182.254C64.8254 183.662 65.3489 185.195 65.5975 186.783C65.8659 187.798 65.7536 188.115 65.5975 188.169C65.007 188.491 63.2501 185.187 59.7414 182.313C58.5875 181.371 57.3378 180.553 56.013 179.873C57.2281 179.106 58.453 178.36 59.6242 177.564Z" fill="white"/>
<path d="M172.035 128.577C171.611 119.305 171.186 110.076 170.757 100.799C165.112 98.8864 159.319 97.4418 153.437 96.4804C147.746 95.5637 141.989 95.1181 136.225 95.1481C136.284 101.353 137.18 107.522 138.89 113.488C140.335 118.45 142.355 123.228 144.907 127.723L172.035 128.577ZM74.3406 82.8356C69.0066 85.5002 63.7362 88.1647 58.4071 90.8341C53.8071 91.8191 49.0563 91.8722 44.4354 90.9903C39.5846 90.0143 38.4671 88.6478 34.4214 88.4331C28.0773 88.1647 26.4278 91.3612 21.1476 91.9517C10.8066 93.0692 -0.38829 82.6209 0.841492 78.4094C1.26607 76.9698 3.18396 76.3305 7.01971 75.0519C10.4774 73.8994 14.1135 73.3755 17.7559 73.5049C22.7629 68.3369 27.2965 66.6728 30.4442 66.0432C37.9546 64.5499 42.376 68.1758 50.5843 66.4678C54.3611 65.6272 57.9087 63.9717 60.9789 61.617C62.1014 61.129 69.3532 58.0448 76.3854 61.7244C78.6178 62.9081 80.5352 64.608 81.9779 66.6825L81.1825 71.9091L74.3406 82.8356Z" fill="#1A5FC7"/>
<path d="M63.4184 87.0964C66.329 84.201 68.4406 80.6015 69.5478 76.6481C71.9682 76.911 74.4034 76.3057 76.419 74.9401C78.4367 73.579 79.9239 71.5643 80.6305 69.2353C81.3055 71.5106 81.7342 73.8518 81.9091 76.2187C82.1775 79.8446 82.7094 87.521 78.7126 90.1855C77.3316 91.1615 76.3165 90.8297 74.5011 92.3181C73.2099 93.39 72.204 94.7647 71.5731 96.3198C69.5329 96.4766 67.4838 96.4766 65.4436 96.3198C63.0896 96.1326 60.7544 95.7573 58.4603 95.1974V90.8297C60.2543 89.7849 61.9185 88.5318 63.4184 87.0964ZM49.1295 138.86C56.1643 140.459 63.3093 141.528 70.5043 142.056C74.5548 142.378 78.4003 142.485 82.0702 142.485C81.5425 143.86 81.3065 145.329 81.3772 146.799C81.4524 147.825 81.6862 148.832 82.0702 149.786C76.7189 150.539 71.2952 150.629 65.9219 150.054C60.1827 149.464 54.5407 148.152 49.1295 146.15C49.4839 144.993 49.6825 143.793 49.72 142.583C49.7165 141.316 49.5173 140.056 49.1295 138.85V138.86ZM106.383 75.3159C106.989 78.3102 108.028 81.2002 109.467 83.8951C110.111 88.5897 111.121 95.2511 112.561 103.357C115.489 119.988 116.982 123.985 120.023 124.946C123.326 126.01 127.27 122.921 130.466 120.413C133.753 117.858 136.399 114.574 138.196 110.819C137.562 105.592 136.864 100.37 136.244 95.2022L170.776 100.8L171.361 128.577C164.594 123.082 157.825 117.59 151.055 112.102C148.02 106.187 146.175 103.362 145.404 103.625C145.038 103.786 144.979 104.85 145.248 106.88C139.597 101.068 138.416 101.122 138.05 101.385C137.142 102.029 138.689 106.451 141.407 109.545C143.414 111.755 145.998 113.36 148.869 114.181C150.448 117.822 152.434 121.273 154.788 124.468C158.409 129.319 163.475 134.331 168.272 137.586C170.176 138.945 172.256 140.038 174.455 140.836C176.695 141.583 178.667 141.636 180.106 140.782C182.024 139.665 182.502 137 183.522 131.666C184.22 128.04 184.533 123.722 183.683 115.889C183.022 109.84 181.898 103.851 180.321 97.9741C177.975 94.7606 175.429 91.6979 172.698 88.8044C170.181 86.1447 167.493 83.6521 164.651 81.3428C164.597 78.7856 164.544 76.1699 164.495 73.6127L162.255 70.5236C162.566 69.8631 162.651 69.1186 162.497 68.405C162.342 67.6914 161.957 67.0485 161.401 66.5756C160.932 66.2077 160.372 65.974 159.781 65.8992C159.19 65.8244 158.589 65.9115 158.043 66.151C156.573 65.2772 155.167 64.2986 153.837 63.223C150.984 60.9261 148.538 58.1662 146.6 55.0586C145.675 57.8849 145.153 60.8271 145.048 63.7988C144.887 68.064 144.731 72.8612 147.712 74.9401C148.352 75.3695 150.152 76.4334 153.627 75.6331C154.222 76.6494 154.518 77.8133 154.481 78.9906C154.452 79.8225 154.253 80.6397 153.895 81.3916C150.538 81.9772 147.132 82.5628 143.769 83.0996C142.437 83.3095 141.105 83.5242 139.772 83.7926C138.543 85.2322 137.332 86.7206 136.093 88.3213C130.713 95.3763 126.271 103.099 122.877 111.297C119.784 101.917 116.675 92.5345 113.552 83.1484C113.074 80.8135 112.787 78.4438 112.693 76.0625C112.537 72.0072 112.961 69.0791 112.537 69.0254C112.322 68.9717 111.951 69.6647 110.99 72.9685C108.325 65.5069 107.086 64.1209 106.456 64.2283C105.446 64.3844 105.338 70.3577 106.358 75.3159H106.383Z" fill="white"/>
<path d="M168.307 137.581C170.211 138.94 172.291 140.034 174.49 140.832C174.442 141.82 174.018 142.752 173.303 143.437C172.589 144.122 171.639 144.506 170.649 144.511C170.145 144.513 169.645 144.415 169.178 144.223C168.711 144.03 168.288 143.747 167.931 143.39C167.574 143.033 167.292 142.609 167.1 142.142C166.908 141.675 166.811 141.175 166.814 140.67C166.809 140.076 166.941 139.487 167.2 138.952C167.459 138.416 167.837 137.947 168.307 137.581ZM48.7446 133.155C50.5014 126.118 51.3018 119.027 52.4242 111.883C52.4779 111.619 52.9561 111.673 52.9122 111.937C52.6438 115.884 52.2778 119.828 51.9362 123.771C51.619 127.079 51.4042 130.652 49.701 133.531C49.6519 133.66 49.5533 133.765 49.427 133.822C49.3007 133.878 49.157 133.883 49.0276 133.833C48.8982 133.784 48.7936 133.686 48.7369 133.559C48.6801 133.433 48.6759 133.289 48.725 133.16L48.7446 133.155ZM77.9519 95.2515C78.8059 96.4764 79.66 97.6525 80.5188 98.8237C81.3777 99.9949 82.4318 101.117 83.1248 102.342C83.1685 102.441 83.1781 102.552 83.152 102.657C83.126 102.762 83.0657 102.855 82.9808 102.922C82.8959 102.989 82.791 103.026 82.6828 103.027C82.5746 103.028 82.4692 102.993 82.3831 102.928C80.2993 101.01 78.7523 98.0234 77.3663 95.5735C77.1614 95.1978 77.7518 94.8708 77.9617 95.2515H77.9519ZM58.8171 95.0367C62.9261 95.2515 66.8644 97.0132 71.0173 95.7346C71.5541 95.5735 71.8177 96.3202 71.3931 96.6374C68.2991 98.8237 61.6915 98.1307 58.4413 96.4764C58.2817 96.3989 58.1536 96.2688 58.0788 96.1079C58.0039 95.947 57.9868 95.7653 58.0304 95.5933C58.074 95.4213 58.1755 95.2696 58.3179 95.1637C58.4604 95.0579 58.6349 95.0044 58.8122 95.0123L58.8171 95.0367ZM49.5449 137.899C52.0484 138.645 54.2884 139.553 56.8651 139.978C60.0615 140.509 63.3165 140.832 66.5667 141.1C69.4459 141.363 72.2764 141.525 75.1459 141.588C77.5469 141.642 80.1577 141.266 82.344 142.227C82.505 142.281 82.505 142.603 82.344 142.715C80.0504 143.838 77.1174 143.462 74.614 143.462C71.4191 143.41 68.221 143.247 65.0197 142.974C59.7492 142.549 53.4539 142.335 48.8715 139.402C48.1785 138.977 48.6568 137.645 49.5645 137.908L49.5449 137.899ZM56.0452 179.482C56.5604 178.815 57.2305 178.284 57.9972 177.935C58.7975 177.447 59.7101 177.135 60.4373 176.603C61.2962 175.963 62.1941 177.457 61.2962 178.096C60.4721 178.567 59.6141 178.977 58.7292 179.321C57.9826 179.643 57.0798 180.121 56.2892 180.067C56.0744 179.96 55.8646 179.692 56.0208 179.482H56.0452ZM53.5417 176.334C55.5669 175.324 57.6459 174.47 59.7785 173.616C60.2665 173.401 60.4715 174.255 59.9981 174.416C57.9143 175.163 55.889 175.963 53.8687 176.856C53.488 177.013 53.1708 176.481 53.5417 176.32V176.334ZM51.5165 174.416C52.2095 173.616 53.2733 173.084 54.181 172.498C55.2009 171.859 56.2648 171.22 57.3335 170.629C57.4355 170.602 57.5438 170.608 57.642 170.647C57.7403 170.686 57.8231 170.756 57.8781 170.846C57.9332 170.937 57.9574 171.042 57.9472 171.147C57.937 171.253 57.8929 171.352 57.8215 171.43L54.6202 173.191C53.6442 173.723 52.756 174.47 51.7507 174.787C51.4823 174.787 51.37 174.577 51.5311 174.416H51.5165ZM49.3839 171.805C50.4038 170.683 51.5164 169.619 52.634 168.55C53.5417 167.701 54.4494 166.598 55.6206 166.154C55.9378 166.047 56.1525 166.418 56.0452 166.686C55.4644 167.857 54.0199 168.765 53.0098 169.614C51.9996 170.463 50.8235 171.425 49.7059 172.225C49.4375 172.386 49.218 172.01 49.3839 171.801V171.805ZM47.2025 169.141C49.4912 167.272 51.7361 165.3 54.0346 163.436C54.6202 162.899 55.5279 163.807 54.9472 164.285C52.6411 166.258 50.1801 168.041 47.588 169.619C47.3147 169.78 46.9487 169.351 47.2122 169.141H47.2025ZM44.7624 165.515C47.5343 164.236 50.0915 162.314 52.6487 160.611C53.2343 160.235 53.8247 161.196 53.2342 161.587C51.5848 162.602 49.9841 163.665 48.3541 164.627C47.2854 165.266 46.2216 166.013 44.8893 165.959C44.6746 166.013 44.5721 165.642 44.7819 165.535L44.7624 165.515ZM76.0487 17.9557C77.1125 16.9406 78.9328 16.8869 80.3676 16.8869C82.2881 16.8334 84.2066 17.0485 86.0675 17.5262C87.3461 17.8483 86.497 19.6588 85.5356 19.2879C83.8368 18.9131 82.1065 18.6991 80.3676 18.6486C78.9816 18.6486 77.4395 18.9658 76.2098 18.4339C75.9999 18.3265 75.8876 18.1118 76.0487 17.9459V17.9557ZM76.2098 22.5918C79.4062 21.7377 82.9784 21.0984 86.2286 21.8451C86.7605 21.9525 86.6043 22.7528 86.1261 22.7528C82.8174 22.8065 79.6746 22.4844 76.3171 23.0163C76.0487 23.0749 75.8877 22.6454 76.2098 22.5918ZM75.6241 26.325C79.0521 25.5793 82.5742 25.3637 86.0675 25.6857C86.8678 25.7394 86.8678 26.9643 86.0675 26.9106C82.6076 26.6959 79.1377 26.6959 75.6778 26.9106C75.4094 26.9106 75.302 26.3787 75.6241 26.325ZM76.0487 30.5365C79.2988 29.4678 83.3688 30.0485 86.6043 30.8001C87.2973 30.9611 87.0289 32.025 86.2823 31.9225C82.8662 31.2832 79.4062 31.493 75.9999 30.9074C75.8876 30.8537 75.9413 30.5902 76.0487 30.5365ZM75.141 35.8656C77.5467 34.8131 80.1381 34.2507 82.7637 34.2113C83.8324 34.2113 86.9752 34.0551 87.5608 35.1873C87.7756 35.563 87.3998 36.1633 86.9752 35.9876H86.9264C86.8679 35.9876 86.8679 35.9876 86.8142 35.9339C85.7166 35.4854 84.5333 35.2854 83.3493 35.3483C82.549 35.3483 81.7535 35.402 81.0654 35.4557C79.1114 35.5422 77.1756 35.87 75.3021 36.4317C75.2327 36.4494 75.1591 36.4396 75.0967 36.4044C75.0343 36.3692 74.988 36.3113 74.9672 36.2427C74.9465 36.1742 74.9529 36.1003 74.9853 36.0364C75.0177 35.9725 75.0734 35.9236 75.141 35.8998V35.8656ZM75.7803 39.8087C75.834 39.755 75.8876 39.7062 75.9413 39.7062H75.9999C76.0487 39.7062 76.0487 39.755 76.1024 39.755C76.585 39.5336 77.0864 39.3556 77.6006 39.2231C78.6045 39.0641 79.616 38.9582 80.6311 38.9059C82.71 38.7449 84.95 38.4765 86.9752 39.0133C87.1046 39.0133 87.2288 39.0647 87.3203 39.1562C87.4118 39.2477 87.4632 39.3718 87.4632 39.5013C87.4632 39.6307 87.4118 39.7548 87.3203 39.8463C87.2288 39.9379 87.1046 39.9893 86.9752 39.9893C84.1496 40.4773 81.0069 40.1503 78.1325 40.3114C78.0202 40.365 75.4094 40.7994 75.7803 39.8234V39.8087ZM192.663 156.131L196.66 162.475C196.299 162.844 195.867 163.137 195.392 163.338C194.916 163.539 194.405 163.644 193.888 163.646C192.853 163.646 191.86 163.235 191.128 162.503C190.396 161.77 189.984 160.777 189.984 159.742C190.021 158.942 190.294 158.171 190.768 157.526C191.242 156.881 191.897 156.39 192.649 156.116L192.663 156.131ZM174.544 173.352C175.052 173.347 175.556 173.443 176.028 173.633C176.499 173.823 176.929 174.104 177.292 174.46C177.654 174.817 177.943 175.241 178.141 175.709C178.34 176.177 178.444 176.68 178.448 177.188C178.452 177.702 178.354 178.212 178.16 178.688C177.965 179.163 177.678 179.596 177.314 179.959C176.951 180.322 176.519 180.61 176.043 180.804C175.567 180.999 175.058 181.097 174.544 181.092C174.035 181.088 173.532 180.984 173.064 180.786C172.595 180.588 172.171 180.299 171.814 179.936C171.457 179.574 171.176 179.144 170.985 178.673C170.794 178.201 170.698 177.697 170.703 177.188C170.701 176.684 170.799 176.184 170.991 175.717C171.184 175.25 171.467 174.827 171.824 174.47C172.181 174.113 172.605 173.831 173.072 173.639C173.539 173.447 174.039 173.35 174.544 173.352ZM127.534 192.648C127.976 192.477 128.445 192.386 128.92 192.38C129.946 192.389 130.928 192.805 131.648 193.537C132.368 194.269 132.768 195.257 132.76 196.284C132.761 196.789 132.663 197.288 132.47 197.755C132.278 198.221 131.995 198.644 131.638 199.001C131.281 199.357 130.857 199.64 130.391 199.832C129.924 200.024 129.424 200.122 128.92 200.12H128.866C128.012 199.266 127.104 198.363 126.25 197.402C126.733 195.791 127.163 194.195 127.534 192.648ZM149.494 155.916C149.999 155.914 150.499 156.012 150.966 156.204C151.433 156.397 151.857 156.679 152.214 157.036C152.571 157.394 152.854 157.818 153.046 158.285C153.239 158.751 153.337 159.252 153.335 159.757C153.339 160.265 153.243 160.77 153.053 161.241C152.862 161.713 152.58 162.142 152.224 162.505C151.867 162.867 151.442 163.156 150.974 163.354C150.506 163.553 150.003 163.657 149.494 163.661C148.986 163.657 148.483 163.553 148.015 163.354C147.547 163.156 147.122 162.867 146.766 162.504C146.41 162.142 146.129 161.712 145.938 161.241C145.748 160.769 145.653 160.265 145.658 159.757C145.656 159.252 145.753 158.752 145.945 158.286C146.136 157.82 146.418 157.396 146.774 157.039C147.13 156.681 147.553 156.398 148.019 156.206C148.485 156.013 148.985 155.915 149.489 155.916H149.494ZM200.076 192.38C200.585 192.384 201.088 192.488 201.557 192.686C202.026 192.884 202.451 193.173 202.808 193.536C203.165 193.898 203.447 194.327 203.638 194.799C203.829 195.271 203.926 195.775 203.922 196.284C203.923 196.789 203.824 197.289 203.632 197.756C203.439 198.222 203.155 198.646 202.798 199.003C202.44 199.359 202.016 199.642 201.549 199.833C201.082 200.025 200.581 200.122 200.076 200.12C199.568 200.126 199.063 200.031 198.591 199.841C198.119 199.651 197.69 199.37 197.327 199.013C196.964 198.657 196.675 198.232 196.477 197.764C196.279 197.296 196.175 196.793 196.172 196.284C196.172 195.249 196.583 194.257 197.314 193.525C198.045 192.793 199.037 192.381 200.071 192.38H200.076ZM157.493 193.981C157.997 193.979 158.497 194.077 158.964 194.269C159.43 194.462 159.854 194.744 160.211 195.102C160.567 195.459 160.85 195.883 161.042 196.35C161.234 196.816 161.331 197.317 161.328 197.821C161.333 198.33 161.238 198.834 161.048 199.306C160.858 199.777 160.577 200.207 160.221 200.569C159.864 200.932 159.44 201.221 158.972 201.419C158.504 201.617 158.001 201.722 157.493 201.725C156.457 201.725 155.464 201.314 154.732 200.582C154 199.85 153.589 198.857 153.589 197.821C153.592 197.313 153.696 196.811 153.894 196.343C154.092 195.874 154.381 195.45 154.743 195.093C155.105 194.737 155.534 194.455 156.005 194.264C156.476 194.073 156.98 193.977 157.488 193.981H157.493ZM149.494 133.316C150.003 133.32 150.506 133.424 150.974 133.622C151.442 133.821 151.867 134.109 152.224 134.472C152.58 134.835 152.862 135.264 153.053 135.736C153.243 136.207 153.339 136.712 153.335 137.22C153.337 137.725 153.239 138.225 153.046 138.692C152.854 139.159 152.571 139.583 152.214 139.94C151.857 140.297 151.433 140.58 150.966 140.772C150.499 140.965 149.999 141.063 149.494 141.061C148.989 141.063 148.489 140.965 148.023 140.772C147.556 140.58 147.132 140.297 146.776 139.94C146.419 139.583 146.137 139.159 145.945 138.692C145.753 138.225 145.656 137.725 145.658 137.22C145.653 136.712 145.748 136.208 145.938 135.737C146.128 135.266 146.409 134.837 146.765 134.474C147.12 134.111 147.544 133.823 148.012 133.624C148.479 133.425 148.981 133.321 149.489 133.316H149.494Z" fill="#1A5FC7"/>
<path d="M92.1459 256.407C91.5602 258.271 90.9258 260.086 90.3304 261.95L108.387 266.587C108.486 265.734 108.356 264.869 108.011 264.083C107.167 262.058 104.868 260.833 102.155 260.779C101.623 260.966 101.071 261.09 100.51 261.15C96.0792 261.526 92.668 257.153 92.1361 256.407H92.1459ZM38.9967 245.636C39.8539 245.093 40.8743 244.867 41.8809 244.997C44.4332 251.502 46.19 254.65 47.2099 254.435C47.6296 254.328 47.898 253.688 48.0103 252.517C48.8048 254.115 49.6946 255.663 50.6748 257.153C51.4702 258.378 52.0071 259.018 52.0071 259.979C51.9485 261.365 50.7724 262.419 50.0257 263.019C45.8777 257.685 41.7687 252.41 37.6157 247.076C37.9743 246.506 38.448 246.017 39.0065 245.641L38.9967 245.636ZM253.418 205.014C254.462 204.664 255.463 204.199 256.405 203.628H261.841C261.895 205.122 262.002 206.669 262.056 208.162C258.054 208.216 254.111 208.216 250.115 208.269C250.002 207.959 249.953 207.629 249.971 207.299C249.99 206.97 250.075 206.647 250.222 206.352C250.71 205.556 251.779 205.556 253.428 205.019L253.418 205.014ZM269.571 205.337C270.687 204.938 271.73 204.361 272.661 203.628H278.517L279.634 208.694L264.813 209.016C264.844 208.196 265.144 207.409 265.667 206.776C266.521 205.8 267.693 205.976 269.571 205.337ZM161.053 69.0794C161.059 68.7693 161.004 68.4609 160.892 68.1717C160.736 68.3108 160.555 68.42 160.36 68.4938C160.221 68.603 160.048 68.6584 159.872 68.65C159.764 68.65 159.711 68.4938 159.711 68.4401C159.77 68.282 159.882 68.1493 160.028 68.0644C160.194 67.957 160.296 67.8008 160.462 67.6935C160.135 67.4787 159.662 67.2055 159.335 67.3714C159.291 67.3952 159.24 67.4041 159.19 67.3968C159.14 67.3894 159.094 67.3663 159.058 67.3307C159.023 67.2951 159 67.249 158.992 67.1992C158.985 67.1494 158.994 67.0985 159.018 67.0542C159.335 66.4686 160.404 66.8931 160.775 67.1615C161.09 67.3902 161.34 67.6975 161.499 68.0529C161.658 68.4083 161.721 68.7993 161.682 69.1868C161.629 69.5577 161.043 69.4503 161.043 69.0794H161.053ZM159.984 72.6516C159.237 74.0376 157.163 74.6769 155.777 75.2088C155.675 75.2625 155.563 75.0478 155.675 74.9941C156.363 74.5695 157.056 74.1986 157.749 73.7692C158.442 73.3397 158.974 72.759 159.613 72.2759C159.891 72.1197 160.101 72.4272 159.994 72.6565L159.984 72.6516ZM145.222 126.918C149.326 127.611 153.484 127.348 157.539 127.894C157.609 127.914 157.67 127.956 157.714 128.013C157.758 128.071 157.782 128.141 157.782 128.214C157.782 128.286 157.758 128.357 157.714 128.415C157.67 128.472 157.609 128.514 157.539 128.534C153.325 129.325 148.997 129.289 144.797 128.426C143.846 128.255 144.27 126.762 145.231 126.923L145.222 126.918ZM69.9805 168.238C70.8345 167.97 71.747 167.97 72.5962 167.75C72.6588 167.707 72.7352 167.687 72.8109 167.696C72.8597 167.696 72.9134 167.643 72.9671 167.643C74.0053 167.184 74.9475 166.533 75.7439 165.725C76.0123 165.456 76.5442 165.827 76.3246 166.149C75.5524 167.196 74.5508 168.053 73.3965 168.653C75.4218 173.879 77.2371 179.155 79.1013 184.381C80.7557 188.964 83.4202 194.029 81.9806 198.988C81.7659 199.788 80.5946 199.476 80.702 198.617C81.678 193.336 78.8329 187.632 77.2372 182.727C75.7731 178.145 74.148 173.557 72.7572 168.921C71.8659 169.307 70.871 169.383 69.9317 169.136C69.8424 169.095 69.7676 169.028 69.717 168.944C69.6665 168.859 69.6426 168.762 69.6484 168.664C69.6542 168.566 69.6894 168.472 69.7496 168.394C69.8097 168.316 69.8919 168.259 69.9853 168.228L69.9805 168.238ZM76.2172 150.753C76.1868 150.696 76.179 150.63 76.1955 150.567C76.2121 150.505 76.2517 150.452 76.3063 150.417C76.3609 150.383 76.4265 150.371 76.4897 150.384C76.5529 150.396 76.609 150.432 76.6467 150.484C78.1449 152.671 79.4771 154.911 81.4438 156.672C83.6252 158.624 86.4019 159.815 89.1153 160.83C89.8083 161.094 89.491 162.216 88.8029 161.948C83.1957 159.708 78.9306 156.243 76.2075 150.753H76.2172ZM49.0351 155.55C50.3673 154.379 52.3389 153.9 53.9152 152.885C55.7193 151.701 57.3601 150.285 58.7953 148.674C59.0051 148.405 59.4931 148.781 59.2833 149.05C58.1351 150.811 56.6923 152.361 55.0181 153.632C53.554 154.749 51.3434 156.404 49.3767 156.35C49.2808 156.358 49.185 156.335 49.1031 156.284C49.0212 156.234 48.9574 156.158 48.9211 156.069C48.8847 155.98 48.8775 155.882 48.9007 155.789C48.9238 155.695 48.976 155.612 49.0497 155.55H49.0351ZM69.346 152.461C69.834 152.461 70.1951 153.154 69.7706 153.471L69.7169 153.525C69.669 153.576 69.6112 153.616 69.547 153.644C69.4827 153.672 69.4135 153.686 69.3436 153.686C69.2736 153.686 69.2045 153.672 69.1403 153.644C69.076 153.616 69.0182 153.576 68.9703 153.525L68.9166 153.471C68.8397 153.386 68.7886 153.281 68.7692 153.168C68.7497 153.055 68.7628 152.939 68.8067 152.833C68.8507 152.727 68.9238 152.636 69.0175 152.57C69.1113 152.504 69.2218 152.466 69.3363 152.461H69.346ZM70.1464 157.682C70.3594 157.755 70.545 157.891 70.6778 158.073C70.8105 158.254 70.884 158.472 70.8881 158.697C70.9467 159.015 70.6783 159.185 70.4001 159.229C70.338 159.312 70.2577 159.379 70.1655 159.426C70.0732 159.472 69.9715 159.497 69.8682 159.498C69.7096 159.495 69.556 159.442 69.4303 159.345C69.3046 159.248 69.2134 159.114 69.1703 158.961C69.1167 158.68 69.1167 158.392 69.1703 158.112C69.2604 157.943 69.4045 157.809 69.5796 157.731C69.7547 157.653 69.9507 157.636 70.1366 157.682H70.1464ZM99.3489 250.892C96.9088 252.385 93.1121 252.703 90.7696 250.731C90.3451 250.36 90.8233 249.755 91.3016 249.877C93.9661 250.516 95.9962 250.785 98.446 249.389C98.6391 249.309 98.8546 249.301 99.0532 249.366C99.2518 249.431 99.4204 249.565 99.5285 249.744C99.6366 249.923 99.6769 250.135 99.6422 250.341C99.6074 250.547 99.4999 250.734 99.3391 250.868L99.3489 250.892ZM48.386 244.694C47.2685 243.718 46.1997 242.401 46.0387 240.854C45.9899 240.537 46.4682 240.322 46.7317 240.59C47.7077 241.601 48.4397 242.723 49.5036 243.518C50.079 243.938 50.7075 244.279 51.3727 244.533C51.9046 244.748 52.3487 244.802 52.5976 245.387C52.6342 245.45 52.6578 245.52 52.6668 245.592C52.6758 245.664 52.6701 245.737 52.65 245.807C52.63 245.877 52.5959 245.942 52.55 245.998C52.5041 246.054 52.4472 246.1 52.3828 246.134C51.1579 246.934 49.2937 245.441 48.386 244.694ZM137.077 95.266C138.813 95.3487 140.541 95.5624 142.245 95.9053C142.406 95.5344 142.625 95.1635 142.782 94.7878C143.031 94.1295 143.227 93.4522 143.367 92.7625C143.387 92.7192 143.421 92.6835 143.462 92.6604C143.504 92.6373 143.552 92.628 143.599 92.634C143.647 92.64 143.691 92.6609 143.725 92.6936C143.76 92.7264 143.783 92.7693 143.792 92.8162C143.694 93.9462 143.443 95.0577 143.045 96.12C146.403 96.813 149.819 97.7207 153.118 98.3063C158.974 99.3214 164.83 100.117 170.686 100.746C170.74 99.4092 170.852 98.1306 171.003 96.9594C171.003 96.7983 171.272 96.7447 171.272 96.9057C171.647 99.7313 172.072 103.035 171.647 105.861C171.589 106.183 171.116 106.129 171.057 105.861C170.803 104.668 170.66 103.454 170.632 102.235C164.928 101.595 159.276 100.795 153.684 99.7313C148.247 98.7162 141.972 97.9745 136.891 95.6271C136.838 95.471 136.916 95.2562 137.077 95.2562V95.266ZM159.198 86.3647C156.636 86.5794 153.494 84.6079 153.342 81.8897C153.293 81.3529 154.094 81.2992 154.196 81.7823C155.743 86.6868 162.566 86.1012 164.801 82.2069C164.908 82.0458 165.23 82.0995 165.176 82.3142C164.908 84.8714 161.443 86.2183 159.208 86.3647H159.198ZM179.612 59.0704C179.67 58.6995 180.202 58.8556 180.144 59.2314C179.168 64.4043 178.279 69.5186 177.538 74.7452C176.796 79.9718 176.469 85.2472 175.293 90.3078C175.186 90.8983 174.229 90.7958 174.229 90.1517C174.385 85.1398 175.561 79.9035 176.469 74.9551C177.425 69.6699 178.489 64.3409 179.612 59.0606V59.0704ZM183.818 34.9236C181.422 34.87 179.236 33.323 176.947 33.3767C176.833 33.3699 176.723 33.3312 176.629 33.2651C176.535 33.199 176.462 33.108 176.417 33.0024C176.373 32.8969 176.359 32.7809 176.376 32.6677C176.394 32.5545 176.443 32.4484 176.518 32.3616C177.743 31.2977 178.919 32.2006 180.251 32.63C183.179 33.6402 185.849 33.8012 188.728 32.469C189.152 32.2591 189.704 32.791 189.265 33.1619C187.82 34.4844 185.8 34.9627 183.818 34.9139V34.9236ZM182.755 105.343C191.763 105.504 201.035 107.208 209.829 108.969C210.898 109.184 210.469 110.834 209.341 110.619C200.494 108.916 191.485 107.798 182.637 106.036C182.563 106.005 182.501 105.95 182.461 105.88C182.422 105.809 182.407 105.728 182.42 105.648C182.432 105.568 182.471 105.495 182.53 105.44C182.589 105.384 182.664 105.351 182.745 105.343H182.755ZM207.057 77.1413C200.503 77.0877 196.56 69.2014 195.282 63.8138C193.949 58.27 194.535 50.2764 200.826 47.9291C201.255 47.7681 201.411 48.3537 201.089 48.6221C195.438 52.3553 195.282 58.7531 197.146 64.7264C197.886 67.377 199.197 69.8337 200.987 71.9245C202.856 74.0034 204.988 74.7501 207.384 75.8676C208.073 76.136 207.697 77.1462 207.057 77.1462V77.1413ZM206.569 68.4011C200.972 67.5471 197.556 56.9378 203.641 54.4879C203.958 54.3269 204.178 54.8588 203.91 55.0736C200.918 56.9914 201.245 60.51 202.68 63.2819C203.69 65.3071 205.076 66.3222 207.106 67.2787C207.697 67.591 207.165 68.5231 206.584 68.3913L206.569 68.4011ZM184.565 17.2821C183.77 17.0674 182.867 16.6965 182.169 17.3358C182.358 17.5142 182.505 17.7326 182.598 17.9751C182.728 18.2279 182.892 18.4612 183.086 18.6681C183.189 18.7754 182.979 18.9365 182.877 18.8828C182.622 18.7344 182.387 18.554 182.179 18.346C182.076 18.2435 181.91 18.1361 181.813 18.0288C181.727 18.5229 181.727 19.0279 181.813 19.5221C181.857 20.1077 180.837 20.1614 180.837 19.5221C180.837 18.507 181.051 17.2821 182.008 16.7502C182.755 16.3207 184.199 16.2134 184.887 16.7502C184.929 16.8032 184.954 16.8679 184.958 16.9354C184.962 17.0029 184.946 17.0701 184.911 17.1279C184.876 17.1858 184.824 17.2316 184.762 17.2591C184.7 17.2867 184.632 17.2947 184.565 17.2821ZM185.312 27.5303C184.033 27.4229 181.583 27.1594 181.051 25.6661C181.033 25.6023 181.035 25.5346 181.056 25.4718C181.077 25.4089 181.116 25.3537 181.168 25.3132C181.221 25.2728 181.284 25.249 181.35 25.245C181.416 25.2409 181.482 25.2567 181.539 25.2903C182.071 25.7318 182.685 26.0636 183.345 26.2664C184.074 26.4609 184.787 26.7105 185.478 27.013C185.692 27.1204 185.585 27.5449 185.317 27.5449L185.312 27.5303ZM64.5391 90.1175C66.2423 91.3961 68.3212 91.6059 70.1854 92.4599C70.4538 92.5673 70.2391 92.948 69.9707 92.948C68.8125 92.7243 67.6711 92.4211 66.5546 92.0403C65.6636 91.8136 64.8057 91.4724 64.0023 91.0252C63.4753 90.6201 64.056 89.7125 64.5391 90.0882V90.1175ZM265.672 68.3376C265.065 68.0568 264.562 67.5903 264.237 67.0054C263.749 66.4149 263.33 65.7756 262.905 65.1363C262.583 64.7117 263.276 64.1603 263.647 64.5507C264.184 65.0826 264.716 65.6682 265.248 66.2587C265.672 66.7906 266.155 67.2689 266.263 67.9619C266.263 68.1766 265.941 68.3913 265.672 68.3376ZM256.024 81.3431C255.175 80.9185 254.804 79.6887 254.267 78.947C253.568 77.9888 252.765 77.1115 251.871 76.3312C251.496 76.014 252.028 75.3211 252.403 75.6383C253.396 76.3751 254.307 77.216 255.121 78.1466C255.761 78.8933 256.825 80.0108 256.717 81.0259C256.699 81.0969 256.666 81.163 256.619 81.2192C256.572 81.2755 256.514 81.3206 256.447 81.351C256.38 81.3815 256.308 81.3966 256.235 81.3952C256.161 81.3938 256.09 81.376 256.024 81.3431ZM268.82 94.2998C268.332 95.0952 267.912 96.1103 267.004 96.4811C266.94 96.5027 266.872 96.5078 266.805 96.496C266.738 96.4843 266.676 96.456 266.623 96.4137C266.57 96.3715 266.529 96.3167 266.502 96.2543C266.476 96.1919 266.466 96.1239 266.472 96.0566C266.526 95.0806 267.38 94.2997 267.858 93.4994C268.507 92.5237 269.094 91.5083 269.615 90.4591C269.937 89.8735 270.738 90.4054 270.469 90.991C269.995 92.1302 269.444 93.2356 268.82 94.2998ZM250.695 93.392C251.339 94.3681 252.028 95.3099 252.774 96.2176C253.311 96.9106 254.111 97.5499 254.238 98.4039C254.292 98.6674 253.916 98.8919 253.706 98.8285C252.852 98.5601 252.267 97.4962 251.788 96.8032C251.095 95.8272 250.51 94.8854 249.871 93.8752C249.441 93.3433 250.359 92.865 250.72 93.3872L250.695 93.392ZM244.995 67.1079C244.673 67.752 244.458 68.5475 243.819 68.9233C243.752 68.9661 243.675 68.9918 243.595 68.9981C243.516 69.0044 243.436 68.991 243.363 68.9592C243.289 68.9274 243.225 68.8782 243.175 68.8157C243.126 68.7533 243.092 68.6796 243.077 68.6012C242.916 67.8545 243.395 67.1371 243.766 66.5223C244.195 65.7756 244.673 65.0289 245.156 64.336C245.581 63.7504 246.542 64.2823 246.166 64.9265C245.742 65.6682 245.366 66.3661 244.995 67.1079ZM262.105 113.225C262.744 114.342 263.437 115.406 264.057 116.529C264.642 117.505 265.389 118.481 265.653 119.618C265.685 119.674 265.705 119.736 265.714 119.8C265.722 119.864 265.717 119.929 265.7 119.991C265.683 120.053 265.654 120.112 265.615 120.163C265.575 120.214 265.526 120.257 265.47 120.289C265.414 120.321 265.352 120.341 265.288 120.35C265.224 120.358 265.159 120.353 265.096 120.336C265.034 120.319 264.976 120.29 264.925 120.251C264.874 120.211 264.831 120.162 264.799 120.106C264.003 119.305 263.525 118.129 262.988 117.119C262.403 116.002 261.817 114.825 261.231 113.703C261.167 113.59 261.15 113.455 261.184 113.33C261.218 113.204 261.301 113.097 261.414 113.032C261.528 112.967 261.662 112.95 261.788 112.985C261.914 113.019 262.021 113.102 262.085 113.215L262.105 113.225ZM243.395 120.472C243.927 118.446 245.312 116.568 246.43 114.874C246.495 114.761 246.602 114.678 246.728 114.644C246.853 114.609 246.988 114.627 247.101 114.691C247.214 114.756 247.297 114.863 247.331 114.989C247.366 115.115 247.349 115.249 247.284 115.362C246.381 117.178 245.742 119.266 244.673 120.96C244.608 121.129 244.479 121.266 244.313 121.34C244.148 121.414 243.959 121.42 243.79 121.355C243.62 121.29 243.483 121.161 243.409 120.995C243.335 120.83 243.33 120.641 243.395 120.472ZM278.57 133.214C277.775 132.682 277.506 131.667 277.082 130.866C276.594 129.856 276.067 128.841 275.589 127.831C275.532 127.732 275.516 127.614 275.546 127.504C275.576 127.394 275.648 127.3 275.747 127.243C275.846 127.186 275.964 127.171 276.074 127.2C276.184 127.23 276.278 127.302 276.335 127.401C276.921 128.377 277.506 129.319 278.038 130.281C278.526 131.081 279.21 131.881 279.21 132.838C279.221 132.917 279.209 132.997 279.175 133.069C279.14 133.141 279.085 133.201 279.016 133.241C278.948 133.281 278.869 133.3 278.789 133.295C278.71 133.291 278.633 133.262 278.57 133.214ZM266.58 132.574C266.795 132.145 267.488 132.467 267.38 132.892C267.004 134.224 266.795 135.82 266.048 137.001C265.956 137.135 265.82 137.234 265.664 137.28C265.508 137.327 265.34 137.317 265.189 137.254C265.039 137.191 264.915 137.078 264.839 136.934C264.762 136.79 264.738 136.624 264.769 136.464C265.048 135.078 265.955 133.799 266.594 132.574H266.58ZM254.321 129.856C253.682 129.27 253.345 128.148 252.935 127.416C252.452 126.517 251.919 125.645 251.339 124.805C251.017 124.381 251.764 123.79 252.081 124.22C252.72 125.074 253.36 125.923 253.95 126.83C254.438 127.631 255.121 128.592 255.121 129.549C255.112 129.637 255.079 129.721 255.026 129.792C254.972 129.863 254.901 129.918 254.818 129.951C254.736 129.984 254.646 129.994 254.559 129.98C254.471 129.966 254.389 129.928 254.321 129.871V129.856ZM242.277 138.543C242.594 137.85 243.741 138.333 243.502 139.079C242.863 140.944 242.277 143.023 241.316 144.779C241.21 144.942 241.05 145.061 240.864 145.118C240.678 145.174 240.479 145.163 240.301 145.086C240.123 145.01 239.977 144.873 239.889 144.7C239.802 144.527 239.778 144.329 239.822 144.14C240.359 142.222 241.423 140.304 242.262 138.543H242.277ZM260.182 147.981C259.44 147.341 259.118 146.273 258.689 145.419C258.201 144.443 257.713 143.467 257.254 142.491C256.932 141.905 257.84 141.368 258.157 141.954C258.689 142.969 259.279 143.984 259.865 144.94C260.353 145.794 260.982 146.648 261.09 147.605C261.144 148.093 260.504 148.244 260.182 147.981ZM279.424 142.383C280.439 143.359 281.611 144.623 281.933 146.063C281.969 146.206 281.954 146.357 281.889 146.489C281.824 146.622 281.715 146.727 281.579 146.785C281.444 146.844 281.293 146.853 281.152 146.81C281.011 146.767 280.89 146.675 280.81 146.551C280.064 145.428 279.585 144.204 278.629 143.193C278.576 143.14 278.534 143.077 278.505 143.008C278.476 142.938 278.461 142.864 278.461 142.788C278.461 142.713 278.476 142.639 278.505 142.569C278.534 142.5 278.576 142.437 278.629 142.383C278.682 142.33 278.745 142.288 278.815 142.259C278.884 142.23 278.959 142.216 279.034 142.216C279.109 142.216 279.184 142.23 279.253 142.259C279.323 142.288 279.386 142.33 279.439 142.383H279.424ZM273.881 106.612C273.51 107.198 272.978 108.159 272.231 108.106C272.159 108.112 272.087 108.103 272.02 108.079C271.952 108.055 271.891 108.016 271.84 107.965C271.789 107.914 271.75 107.853 271.726 107.785C271.701 107.717 271.692 107.645 271.699 107.574C271.645 106.881 272.392 106.344 272.709 105.812C273.127 105.209 273.483 104.567 273.773 103.894C273.847 103.753 273.972 103.644 274.122 103.59C274.272 103.536 274.437 103.54 274.584 103.601C274.731 103.662 274.851 103.776 274.918 103.921C274.986 104.065 274.997 104.23 274.949 104.382C274.682 105.168 274.323 105.92 273.881 106.622V106.612ZM245.366 104.055C244.995 103.679 245.527 103.147 245.952 103.465C246.584 103.991 247.14 104.602 247.606 105.28C247.977 105.866 248.514 106.666 248.353 107.359C248.299 107.73 247.821 107.783 247.552 107.574C247.064 107.144 246.967 106.344 246.645 105.812C246.317 105.161 245.885 104.567 245.366 104.055Z" fill="#0D0D0C"/>
</svg>
