<svg width="70" height="71" viewBox="0 0 70 71" fill="none" xmlns="http://www.w3.org/2000/svg">
<path d="M60.4051 9.42012C52.4235 6.26191 43.3809 4.52148 34.9399 4.52148C26.25 4.52148 17.1938 6.23457 9.43364 9.34219C6.65825 10.4674 6.1811 12.4512 6.65962 13.9305L7.21606 15.3223C7.32523 15.5948 7.48815 15.8426 7.69512 16.0509C7.90208 16.2591 8.14885 16.4236 8.42073 16.5345C8.6926 16.6453 8.98401 16.7003 9.27758 16.6962C9.57116 16.692 9.8609 16.6288 10.1295 16.5104C11.6061 15.8596 13.4012 15.0693 13.8209 14.8998C19.8379 12.402 27.1674 11.084 35 11.084C42.8573 11.084 49.778 12.3473 56.1586 14.9463C56.7629 15.1924 58.193 15.824 59.7366 16.5131C60.0046 16.6328 60.2941 16.6974 60.5876 16.7029C60.8812 16.7084 61.1728 16.6548 61.4452 16.5452C61.7176 16.4356 61.9651 16.2723 62.1731 16.065C62.381 15.8577 62.5451 15.6107 62.6555 15.3387L63.1641 14.0918L63.2106 13.9688C63.6823 12.5729 63.2297 10.5439 60.4051 9.42012Z" fill="#2F80ED"/>
<path d="M55.9425 19.4047C49.7204 16.8986 42.0656 15.459 34.9398 15.459C27.7494 15.4637 20.6223 16.803 13.9206 19.4088C13.8482 19.4375 13.639 19.5291 13.3341 19.6658C13.0705 19.784 12.8329 19.9531 12.6351 20.1636C12.4372 20.374 12.283 20.6216 12.1813 20.8919C12.0796 21.1623 12.0325 21.4501 12.0426 21.7388C12.0527 22.0275 12.12 22.3113 12.2404 22.5738C12.7872 23.7646 13.5282 25.3875 14.3595 27.2072C18.8589 37.0605 27.2357 55.3809 31.0706 63.3105C31.4259 64.0503 31.9836 64.6742 32.6791 65.1098C33.3746 65.5453 34.1793 65.7748 34.9999 65.7715C35.8219 65.7747 36.6279 65.5444 37.3241 65.1072C38.0202 64.6701 38.5778 64.0442 38.932 63.3023L38.9402 63.2846L57.7116 22.6012C57.8358 22.3349 57.9049 22.0464 57.9147 21.7527C57.9245 21.4591 57.8749 21.1666 57.7688 20.8927C57.6626 20.6187 57.5022 20.3691 57.2972 20.1587C57.0921 19.9484 56.8466 19.7816 56.5755 19.6686C56.2665 19.5387 56.0491 19.4484 55.9603 19.4129L55.9425 19.4047ZM26.5343 30.7619C25.6466 30.8198 24.7624 30.6057 23.9995 30.1482C23.2366 29.6907 22.6313 29.0114 22.2643 28.2011C21.8973 27.3908 21.786 26.4878 21.9454 25.6126C22.1047 24.7374 22.527 23.9316 23.156 23.3026C23.7851 22.6736 24.5909 22.2512 25.4661 22.0919C26.3413 21.9326 27.2442 22.0439 28.0546 22.4109C28.8649 22.7778 29.5441 23.3831 30.0016 24.146C30.4592 24.9089 30.6732 25.7932 30.6154 26.6809C30.5463 27.7405 30.0941 28.7389 29.3432 29.4898C28.5923 30.2407 27.594 30.6928 26.5343 30.7619ZM35.2843 48.2619C34.3966 48.3198 33.5124 48.1057 32.7495 47.6482C31.9866 47.1907 31.3813 46.5114 31.0143 45.7011C30.6473 44.8908 30.536 43.9878 30.6954 43.1126C30.8547 42.2374 31.277 41.4316 31.906 40.8026C32.5351 40.1736 33.3409 39.7512 34.2161 39.5919C35.0913 39.4326 35.9942 39.5439 36.8046 39.9109C37.6149 40.2778 38.2941 40.8831 38.7516 41.646C39.2091 42.4089 39.4232 43.2932 39.3654 44.1809C39.2963 45.2405 38.8441 46.2389 38.0932 46.9898C37.3423 47.7407 36.344 48.1928 35.2843 48.2619ZM44.0343 32.9494C43.1466 33.0073 42.2624 32.7932 41.4995 32.3357C40.7366 31.8782 40.1313 31.1989 39.7643 30.3886C39.3973 29.5783 39.286 28.6753 39.4454 27.8001C39.6047 26.9249 40.027 26.1191 40.656 25.4901C41.2851 24.8611 42.0909 24.4387 42.9661 24.2794C43.8413 24.1201 44.7442 24.2314 45.5546 24.5984C46.3649 24.9653 47.0441 25.5706 47.5016 26.3335C47.9591 27.0964 48.1732 27.9807 48.1154 28.8684C48.0463 29.928 47.5941 30.9264 46.8432 31.6773C46.0923 32.4282 45.094 32.8803 44.0343 32.9494Z" fill="#2F80ED"/>
</svg>
