<svg width="71" height="70" viewBox="0 0 71 70" fill="none" xmlns="http://www.w3.org/2000/svg">
<g clip-path="url(#clip0)">
<path d="M35.0449 45.9375C34.3312 45.9375 33.623 45.9047 32.9244 45.8432C29.3196 45.521 25.8338 44.3904 22.7261 42.5354C19.6185 40.6804 16.969 38.1487 14.9746 35.1285L2.7793 56.875H18.502L26.4316 70L37.715 45.7885C36.8284 45.8872 35.937 45.937 35.0449 45.9375ZM55.1426 35.1012C52.2544 39.4752 48.0235 42.7926 43.0867 44.5539L37.4648 56.8067L43.6582 70L51.5879 56.875H67.3105L55.1426 35.1012Z" fill="#2F80ED"/>
<path d="M35.0476 28.4375C38.672 28.4375 41.6101 25.4994 41.6101 21.875C41.6101 18.2506 38.672 15.3125 35.0476 15.3125C31.4232 15.3125 28.4851 18.2506 28.4851 21.875C28.4851 25.4994 31.4232 28.4375 35.0476 28.4375Z" fill="#2F80ED"/>
<path d="M35.0449 2.1875C24.1895 2.1875 15.3574 11.0195 15.3574 21.875C15.3574 32.7305 24.1895 41.5625 35.0449 41.5625C45.9004 41.5625 54.7324 32.7305 54.7324 21.875C54.7324 11.0195 45.9004 2.1875 35.0449 2.1875ZM35.0449 32.8125C32.8817 32.8125 30.767 32.171 28.9684 30.9692C27.1697 29.7674 25.7678 28.0592 24.94 26.0606C24.1122 24.062 23.8956 21.8629 24.3176 19.7412C24.7396 17.6195 25.7813 15.6707 27.3109 14.141C28.8406 12.6114 30.7895 11.5697 32.9111 11.1477C35.0328 10.7256 37.232 10.9422 39.2305 11.7701C41.2291 12.5979 42.9373 13.9998 44.1391 15.7985C45.341 17.5971 45.9824 19.7118 45.9824 21.875C45.9792 24.7748 44.8258 27.5549 42.7753 29.6054C40.7248 31.6559 37.9447 32.8092 35.0449 32.8125Z" fill="#2F80ED"/>
</g>
<defs>
<clipPath id="clip0">
<rect width="70" height="70" fill="white" transform="translate(0.0449219)"/>
</clipPath>
</defs>
</svg>
