<svg width="71" height="70" viewBox="0 0 71 70" fill="none" xmlns="http://www.w3.org/2000/svg">
<path d="M45.0522 21.4363C44.2062 21.4367 43.3867 21.7299 42.733 22.2658C42.0794 22.8017 41.6322 23.5472 41.4676 24.3752C41.303 25.2033 41.4312 26.0627 41.8303 26.807C42.2294 27.5513 42.8748 28.1345 43.6565 28.4572C44.4382 28.7799 45.3078 28.8222 46.1171 28.5767C46.9265 28.3313 47.6256 27.8134 48.0953 27.1113C48.5649 26.4092 48.7761 25.5663 48.6929 24.7262C48.6096 23.8861 48.2371 23.1008 47.6387 22.5041C47.2993 22.1647 46.8961 21.8957 46.4522 21.7125C46.0084 21.5292 45.5325 21.4354 45.0522 21.4363Z" fill="#2F80ED"/>
<path d="M65.408 6.84383C65.4073 6.83975 65.4073 6.8356 65.408 6.83153C65.2921 6.32473 65.0367 5.86033 64.6704 5.49072C64.3042 5.12111 63.8417 4.861 63.3352 4.73973C59.2527 3.74578 52.8303 4.80535 45.7133 7.6491C38.5401 10.5202 31.819 14.7585 27.2762 19.3003C25.8201 20.7457 24.4673 22.2912 23.2279 23.9255C20.1688 23.7888 17.474 24.2235 15.204 25.212C7.29376 28.686 5.03468 37.5768 4.43326 41.2272C4.34623 41.7459 4.38031 42.2776 4.53283 42.781C4.68536 43.2844 4.95222 43.7459 5.31265 44.1295C5.67308 44.5131 6.11736 44.8086 6.61091 44.9929C7.10446 45.1772 7.63396 45.2454 8.15821 45.1921H8.17602L16.9877 44.2323C16.9986 44.3444 17.011 44.447 17.0206 44.5413C17.1337 45.6128 17.6126 46.613 18.3768 47.3741L22.6772 51.6684C23.4387 52.4322 24.4407 52.9107 25.5144 53.0233L25.8089 53.0548L24.85 61.8376V61.8553C24.8009 62.3284 24.8514 62.8064 24.998 63.2588C25.1447 63.7113 25.3843 64.1282 25.7017 64.483C26.019 64.8378 26.407 65.1225 26.8409 65.3191C27.2747 65.5157 27.745 65.6198 28.2215 65.6247C28.4119 65.6248 28.6021 65.6093 28.79 65.5782C32.4684 64.9876 41.3732 62.7604 44.8447 54.8239C45.827 52.5735 46.2612 49.8952 46.1393 46.8477C47.7843 45.6135 49.3386 44.2634 50.7904 42.8077C55.3702 38.2604 59.6308 31.6077 62.4776 24.553C65.3121 17.5311 66.3793 11.0739 65.408 6.84383ZM50.7411 30.7532C49.6154 31.8778 48.1808 32.6438 46.6188 32.9545C45.0567 33.2653 43.4374 33.1066 41.9658 32.4987C40.4941 31.8908 39.2361 30.861 38.3511 29.5394C37.466 28.2179 36.9936 26.6641 36.9936 25.0746C36.9936 23.4851 37.466 21.9313 38.3511 20.6097C39.2361 19.2882 40.4941 18.2584 41.9658 17.6505C43.4374 17.0426 45.0567 16.8839 46.6188 17.1946C48.1808 17.5053 49.6154 18.2714 50.7411 19.396C51.4955 20.1376 52.0947 21.0216 52.5037 21.9965C52.9126 22.9714 53.1233 24.0177 53.1233 25.0746C53.1233 26.1315 52.9126 27.1778 52.5037 28.1527C52.0947 29.1276 51.4955 30.0116 50.7411 30.7532Z" fill="#2F80ED"/>
<path d="M22.184 52.8342C21.6539 52.7685 21.118 52.8983 20.677 53.1992C19.8016 53.7967 18.9221 54.3873 18.0344 54.9629C16.2383 56.1277 14.0902 54.0824 15.1574 52.2285L16.8219 49.3574C17.0599 49.01 17.1924 48.6015 17.2036 48.1808C17.2147 47.7601 17.1041 47.3452 16.8848 46.9857C16.6656 46.6262 16.3471 46.3375 15.9676 46.1541C15.5881 45.9707 15.1636 45.9004 14.7451 45.9518C12.8976 46.1849 11.1804 47.0247 9.86385 48.3389C9.36244 48.8406 7.83766 50.3637 7.01705 56.1674C6.78347 57.8344 6.63623 59.5124 6.57592 61.1945C6.56842 61.4865 6.61957 61.777 6.72637 62.0489C6.83316 62.3208 6.99343 62.5686 7.19772 62.7777C7.40202 62.9868 7.6462 63.153 7.91587 63.2664C8.18553 63.3798 8.47523 63.4382 8.76787 63.4381H8.82267C10.5096 63.3785 12.1923 63.2324 13.8642 63.0006C19.6824 62.1803 21.2086 60.6572 21.71 60.1568C23.033 58.8424 23.8724 57.1206 24.0924 55.2705C24.1628 54.6949 24.0014 54.115 23.6435 53.6581C23.2857 53.2013 22.7607 52.9049 22.184 52.8342Z" fill="#2F80ED"/>
</svg>
